<svg width="21" height="21" viewBox="0 0 21 21" fill="none" xmlns="http://www.w3.org/2000/svg">
<g clip-path="url(#clip0_1618_69898)">
<path fill-rule="evenodd" clip-rule="evenodd" d="M17.5717 18.1397C18.1384 17.6112 18.0946 16.7184 17.5505 16.166C16.9153 15.521 15.8687 15.6065 15.1843 16.1972C13.851 17.348 12.1348 18.0404 10.2623 18.0404C9.26374 18.0404 8.30964 17.8435 7.43438 17.4852C7.43114 17.4839 7.42745 17.4852 7.42566 17.4883L5.99874 19.9979C5.99395 20.0063 5.99705 20.0172 6.00576 20.0212C7.34205 20.6367 8.82605 20.9794 10.3888 20.9794C13.1586 20.9794 15.6807 19.903 17.5717 18.1397ZM6.28993 16.8981C6.2915 16.899 6.29201 16.9011 6.29108 16.9027L4.87462 19.3938C4.87004 19.4019 4.85983 19.4049 4.85202 19.4C2.44835 17.9064 0.674921 15.4695 0.0312262 12.5964C-0.154492 11.7674 0.514028 11.0391 1.35127 11.0391C2.08049 11.0391 2.68022 11.5996 2.87999 12.3117C3.42282 14.2467 4.65799 15.8773 6.28993 16.8981ZM5.72273 12.3266C6.55378 14.1199 8.32459 15.3581 10.375 15.3581C12.0373 15.3581 13.5159 14.5442 14.4588 13.2805C14.7038 12.9523 14.638 12.497 14.3512 12.2059C13.911 11.7589 13.158 11.8981 12.7215 12.3488C11.9078 13.1889 10.7577 13.5813 9.6453 13.2786C8.84367 13.0605 8.20285 12.5199 7.79845 11.8081C7.55364 11.3772 7.13809 11.0391 6.64822 11.0391C5.95428 11.0391 5.42727 11.689 5.72273 12.3266ZM20.9702 11.0391C20.9749 11.0391 20.9786 11.0431 20.9782 11.0479L20.9778 11.0524C20.9774 11.0576 20.9712 11.0599 20.9676 11.0563L20.9644 11.053C20.9594 11.0479 20.963 11.0391 20.9702 11.0391Z" fill="url(#paint0_linear_1618_69898)"/>
<path fill-rule="evenodd" clip-rule="evenodd" d="M17.5717 2.83968C18.1383 3.36816 18.0946 4.26097 17.5505 4.81344C16.9152 5.45844 15.8687 5.37289 15.1842 4.78215C13.851 3.63142 12.1348 2.939 10.2623 2.939C9.26368 2.939 8.30964 3.13591 7.43438 3.49421C7.43108 3.49554 7.42738 3.49419 7.4256 3.49109L5.99868 0.981533C5.9939 0.973127 5.99699 0.962194 6.00569 0.958181C7.34198 0.342719 8.82598 0 10.3888 0C13.1586 0 15.6807 1.0764 17.5717 2.83968ZM6.28998 4.08133C6.29152 4.08036 6.29202 4.07833 6.29111 4.07673L4.87465 1.58558C4.87277 1.58227 4.87096 1.57894 4.86923 1.57559C4.86776 1.57278 4.86427 1.57176 4.86159 1.57342C2.45305 3.06656 0.67577 5.50619 0.0312252 8.38313C-0.15449 9.21209 0.51403 9.94043 1.35127 9.94043C2.08049 9.94043 2.68022 9.37989 2.87999 8.66777C3.42282 6.73273 4.65801 5.10206 6.28998 4.08133ZM5.72273 8.6529C6.55372 6.85963 8.32459 5.62134 10.375 5.62134C12.0373 5.62134 13.5159 6.43526 14.4588 7.69899C14.7037 8.02717 14.638 8.48245 14.3512 8.77361C13.911 9.22062 13.1581 9.08137 12.7215 8.63068C11.9078 7.79055 10.7577 7.3982 9.6453 7.70086C8.84368 7.91894 8.20286 8.45951 7.79845 9.17144C7.5537 9.6023 7.13809 9.94043 6.64822 9.94043C5.95429 9.94043 5.42727 9.29046 5.72273 8.6529ZM20.9701 9.94043C20.9748 9.94043 20.9785 9.93636 20.9782 9.93158L20.9773 9.9215C20.9772 9.91853 20.9736 9.91717 20.9715 9.9193L20.9644 9.92647C20.9593 9.93158 20.963 9.94043 20.9701 9.94043Z" fill="url(#paint1_linear_1618_69898)"/>
</g>
<defs>
<linearGradient id="paint0_linear_1618_69898" x1="9.5151e-09" y1="16.0093" x2="20.9782" y2="16.0093" gradientUnits="userSpaceOnUse">
<stop stop-color="#FFF33B"/>
<stop offset="0.04" stop-color="#FEE62D"/>
<stop offset="0.12" stop-color="#FDD51B"/>
<stop offset="0.2" stop-color="#FDCA0F"/>
<stop offset="0.28" stop-color="#FDC70C"/>
<stop offset="0.67" stop-color="#F3903F"/>
<stop offset="0.89" stop-color="#ED683C"/>
<stop offset="1" stop-color="#E93E3A"/>
</linearGradient>
<linearGradient id="paint1_linear_1618_69898" x1="-1.41855e-08" y1="4.97009" x2="20.9782" y2="4.97009" gradientUnits="userSpaceOnUse">
<stop stop-color="#FFF33B"/>
<stop offset="0.04" stop-color="#FEE62D"/>
<stop offset="0.12" stop-color="#FDD51B"/>
<stop offset="0.2" stop-color="#FDCA0F"/>
<stop offset="0.28" stop-color="#FDC70C"/>
<stop offset="0.67" stop-color="#F3903F"/>
<stop offset="0.89" stop-color="#ED683C"/>
<stop offset="1" stop-color="#E93E3A"/>
</linearGradient>
<clipPath id="clip0_1618_69898">
<rect width="21" height="21" fill="white"/>
</clipPath>
</defs>
</svg>
